<svg width="32" height="33" viewBox="0 0 32 33" fill="#fff" xmlns="http://www.w3.org/2000/svg">
    <path fill-rule="evenodd" clip-rule="evenodd"
        d="M8.356 29.93V11.872H2.355V29.93h6.001zm-3-20.523c2.092 0 3.396-1.388 3.396-3.12-.04-1.772-1.304-3.12-3.357-3.12S2 4.514 2 6.287c0 1.733 1.303 3.12 3.317 3.12h.04zm6.322 20.523s.079-16.364 0-18.058h6.003v2.619h-.04c.789-1.232 2.21-3.043 5.449-3.043 3.95 0 6.91 2.58 6.91 8.128V29.93h-6.002v-9.66c0-2.428-.868-4.084-3.04-4.084-1.658 0-2.646 1.116-3.08 2.196-.159.384-.197.924-.197 1.463V29.93h-6.003z" />
</svg>