<svg width="32" height="33" viewBox="0 0 32 33" fill="#fff" xmlns="http://www.w3.org/2000/svg">
    <path fill-rule="evenodd" clip-rule="evenodd"
        d="M10.806 27.623c10.566 0 16.345-8.64 16.345-16.133 0-.245 0-.49-.017-.733A11.586 11.586 0 0030 7.822c-1.047.459-2.16.76-3.298.892a5.71 5.71 0 002.525-3.136 11.607 11.607 0 01-3.648 1.376c-2.176-2.282-5.814-2.393-8.129-.246a5.63 5.63 0 00-1.661 5.418c-4.619-.229-8.923-2.382-11.84-5.923-1.525 2.59-.745 5.904 1.78 7.567a5.758 5.758 0 01-2.609-.708v.072c.001 2.699 1.93 5.022 4.609 5.557a5.789 5.789 0 01-2.593.097c.752 2.31 2.91 3.892 5.366 3.938A11.623 11.623 0 012 25.076a16.424 16.424 0 008.806 2.543" />
</svg>