<svg width="32" height="33" viewBox="0 0 32 33" fill="#fff" xmlns="http://www.w3.org/2000/svg">
    <path
        d="M20.825 29.866a8.62 8.62 0 01-3.852.606 8.206 8.206 0 01-3.84-.606 1.427 1.427 0 01-.53-1.123c0-.421-.015-1.527-.022-2.998-4.906 1.065-5.94-2.365-5.94-2.365a4.668 4.668 0 00-1.96-2.58c-1.6-1.094.12-1.07.12-1.07a3.706 3.706 0 012.702 1.817 3.754 3.754 0 005.131 1.463 3.771 3.771 0 011.121-2.359c-3.914-.443-8.031-1.957-8.031-8.712a6.822 6.822 0 011.813-4.734 6.339 6.339 0 01.174-4.664s1.48-.475 4.849 1.808c2.89-.792 5.94-.792 8.83 0 3.366-2.283 4.843-1.808 4.843-1.808a6.332 6.332 0 01.176 4.664 6.815 6.815 0 011.812 4.734c0 6.773-4.123 8.265-8.05 8.701a4.198 4.198 0 011.195 3.264c0 2.357-.02 4.26-.02 4.839a1.327 1.327 0 01-.521 1.123z" />
</svg>