<svg width="99" height="42" viewBox="0 0 99 42" fill="none" xmlns="http://www.w3.org/2000/svg">
<path d="M10.3248 0.346154L14.2185 17.6538H11.1286L10.3248 14.0192H3.79328L2.93917 17.6538H0L3.99425 0.346154H10.3248ZM9.79722 11.4231L7.93826 3.11538H6.28027L4.32083 11.4231H9.79722ZM27.152 0.346154V3.11538H18.8369V7.61538H26.9008V10.3352H18.8369V17.6538H15.8224V0.346154H27.152ZM33.0803 14.8846V3.11538H29.0107V0.346154H40.1645V3.11538H36.0949V14.8846H40.1645V17.6538H29.0107V14.8846H33.0803ZM41.6191 11.4725H44.5583V12.4615C44.5583 12.9808 44.6337 13.4258 44.8346 13.772C45.0356 14.1181 45.2868 14.4148 45.6385 14.6374C45.9902 14.8599 46.3922 15.033 46.8694 15.1319C47.3468 15.2308 47.8743 15.2802 48.4772 15.2802C49.7333 15.2802 50.6627 15.0824 51.2153 14.6868C51.768 14.2912 52.0695 13.6484 52.0695 12.7335C52.0695 12.0412 51.8685 11.522 51.5168 11.1264C51.1651 10.7308 50.5873 10.4588 49.7835 10.3104L45.9651 9.4945C44.5081 9.1978 43.453 8.65385 42.7998 7.83791C42.1467 7.02198 41.8452 6.05769 41.8452 4.92033C41.8452 4.22802 41.9708 3.58516 42.2472 2.99176C42.4984 2.39835 42.9003 1.87912 43.4279 1.43407C43.9554 0.989011 44.6337 0.642857 45.4375 0.395604C46.2414 0.148352 47.1709 0 48.226 0C49.2811 0 50.2356 0.123626 51.0646 0.370879C51.8685 0.618132 52.5468 0.964285 53.0994 1.40934C53.627 1.8544 54.0289 2.3489 54.3052 2.94231C54.5816 3.53571 54.7323 4.15385 54.7323 4.82143V6.18132H51.7931V5.51374C51.7931 4.96978 51.6926 4.5 51.5168 4.12912C51.3158 3.75824 51.0646 3.46154 50.738 3.23901C50.4115 3.04121 50.0347 2.89286 49.5825 2.79396C49.1303 2.69506 48.6782 2.6456 48.1757 2.6456C47.7236 2.6456 47.2965 2.69505 46.8946 2.76923C46.4926 2.84341 46.1661 2.96703 45.8646 3.14011C45.5632 3.31319 45.3119 3.53571 45.1361 3.83242C44.9603 4.12912 44.8849 4.47527 44.8849 4.8956C44.8849 5.14286 44.91 5.39011 44.9602 5.61264C45.0105 5.85989 45.111 6.05769 45.2868 6.23077C45.4375 6.42857 45.6636 6.57692 45.9651 6.72527C46.2665 6.87363 46.6685 6.99725 47.1709 7.09615L50.7883 7.81319C52.1951 8.10989 53.2753 8.62912 54.0289 9.42033C54.7574 10.2115 55.1342 11.25 55.1342 12.5852C55.1342 13.4011 54.9835 14.1429 54.7072 14.8104C54.4057 15.478 53.9787 16.0467 53.426 16.5165C52.8482 16.9863 52.1448 17.3571 51.2907 17.6044C50.4366 17.8764 49.482 18 48.3767 18C47.0704 18 45.9902 17.8516 45.1361 17.5302C44.282 17.2335 43.5786 16.8379 43.0762 16.3434C42.5486 15.8489 42.1718 15.3049 41.9457 14.7115C41.7196 14.1181 41.6191 13.5494 41.6191 12.9808V11.4725ZM60.174 0.346154V7.46703H67.1577V0.346154H70.1722V17.6538H67.1577V10.2363H60.174V17.6538H57.1595V0.346154H60.174ZM82.1062 0.346154L86 17.6538H82.9101L82.1062 14.0192H75.5747L74.7206 17.6538H71.7815L75.7757 0.346154H82.1062ZM81.5787 11.4231L79.7197 3.11538H78.0617L76.1023 11.4231H81.5787Z" fill="url(#paint0_linear_428_137)"/>
<path d="M62.7294 34.3628H65.9521V33.1787H62.7294V34.3628Z" fill="white"/>
<path d="M67.9359 30.2536V35.9651H66.6966V30.4625L66.5191 30.2536H62.1625L61.9855 30.4625V35.9651H60.7815V30.2536H61.8085L61.9855 30.0098V29.0347H66.6966V30.0098L66.8736 30.2536H67.9359Z" fill="white"/>
<path d="M33.1889 35.9651V34.781H27.5571V33.0745H32.3034V31.8904H27.5571V30.2188H33.1889V29.0347H26.3528V30.2188V34.781V35.9651H27.5571H33.1889Z" fill="white"/>
<path d="M53.1301 34.9899V35.9651H59.1164V34.781H53.3071L53.1654 34.572V29.0347H51.9261V34.781H52.9532L53.1301 34.9899Z" fill="white"/>
<path d="M43.5673 35.9651H44.807H50.4388V34.781H44.807V33.3183L44.9487 33.0745H49.5533V31.8904H44.9487L44.807 31.6815V30.2188H50.4388V29.0347H43.5673V30.2188V31.8904H44.6299L44.807 32.1342V32.8656L44.6299 33.1094H43.5673V34.781V35.9651Z" fill="white"/>
<path d="M10.1302 35.9651H16.1162V34.781H10.1302V33.3183L10.3073 33.0745H15.2307V31.8904H10.3073L10.1302 31.6815V30.2188H16.1162V29.0347H10.1302H9.28009H8.9259V31.8904H9.95308L10.1302 32.1342V32.8656L9.95308 33.0745H8.9259V35.9651H9.28009H10.1302Z" fill="white"/>
<path fill-rule="evenodd" clip-rule="evenodd" d="M84.9731 30.2188H86.0001V34.781H84.9731L84.7956 35.0248V35.9651H79.6599V35.0248L79.483 34.781H78.4554V30.2188H79.483L79.6599 29.975V29.0347H84.7956V29.975L84.9731 30.2188ZM79.6599 34.572L79.8369 34.8158H84.6186L84.7956 34.6069V30.4277L84.6186 30.2188H79.8369L79.6599 30.4277V34.572Z" fill="white"/>
<path fill-rule="evenodd" clip-rule="evenodd" d="M18.5954 35.9651H17.3911V30.2188H18.4183L18.5954 30.0098V29.0347H23.6959V30.0098L23.873 30.2188H24.9002V32.4825H23.873L23.6959 32.7262V33.6666H22.4208L24.1209 34.9899V35.9651H23.1646L21.4998 34.6765V33.6666H18.5954V35.9651ZM23.5542 32.5173L23.6959 32.3083V30.4625L23.5188 30.2188H18.7725L18.5954 30.4625V32.5173H23.5542Z" fill="white"/>
<path fill-rule="evenodd" clip-rule="evenodd" d="M34.676 35.9651V29.0347H35.8803H40.6974V30.0098L40.8745 30.2188H41.9017V34.781H40.8745L40.6974 34.9899V35.9651H34.676ZM35.8803 34.781H40.5204L40.6974 34.572V30.4277L40.5204 30.2188H35.8803V34.781Z" fill="white"/>
<path d="M75.7994 34.781H74.7718L74.5949 34.5372V33.3531L72.6114 30.2188H72.08L71.903 30.0098V29.0347H70.6985H69.4945V30.2188V35.9651H70.6985V30.2188H71.726L71.903 30.4277V31.577L73.9576 34.781H74.4179L74.5949 34.9899V35.9651H75.7994H75.8347H77.0034V29.0347H75.7994V34.781Z" fill="white"/>
<path fill-rule="evenodd" clip-rule="evenodd" d="M7.5445 29V33.6319H1.2043V36H0V29H7.5445ZM6.3402 30.1841H1.2043V32.4478H6.3402V30.1841Z" fill="white"/>
<g filter="url(#filter0_d_428_137)">
<path d="M64.2907 25.5H61.6544L67.6032 13.8636H70.7737L72.8532 25.5H70.2169L68.8021 16.5227H68.7112L64.2907 25.5ZM64.893 20.9261H71.1203L70.7907 22.8466H64.5635L64.893 20.9261ZM73.0538 25.5L74.9856 13.8636H79.5765C80.4553 13.8636 81.1769 14.0322 81.7413 14.3693C82.3095 14.7027 82.7072 15.1667 82.9345 15.7614C83.1656 16.3523 83.2186 17.0341 83.0936 17.8068C82.9648 18.5833 82.6845 19.267 82.2527 19.858C81.8247 20.4451 81.2678 20.9034 80.5822 21.233C79.8966 21.5625 79.105 21.7273 78.2072 21.7273H75.2811L75.605 19.7557H78.1334C78.6106 19.7557 79.0178 19.6742 79.355 19.5114C79.6959 19.3447 79.9667 19.1155 80.1675 18.8239C80.3682 18.5284 80.4989 18.1894 80.5595 17.8068C80.6239 17.4167 80.6031 17.0777 80.497 16.7898C80.3909 16.5019 80.1959 16.2784 79.9118 16.1193C79.6315 15.9564 79.2546 15.875 78.7811 15.875H77.122L75.514 25.5H73.0538ZM86.6052 13.8636L84.6734 25.5H82.2132L84.145 13.8636H86.6052Z" fill="#B6E9D2"/>
</g>
<defs>
<filter id="filter0_d_428_137" x="49.6544" y="5.86377" width="48.9508" height="35.6362" filterUnits="userSpaceOnUse" color-interpolation-filters="sRGB">
<feFlood flood-opacity="0" result="BackgroundImageFix"/>
<feColorMatrix in="SourceAlpha" type="matrix" values="0 0 0 0 0 0 0 0 0 0 0 0 0 0 0 0 0 0 127 0" result="hardAlpha"/>
<feOffset dy="4"/>
<feGaussianBlur stdDeviation="6"/>
<feComposite in2="hardAlpha" operator="out"/>
<feColorMatrix type="matrix" values="0 0 0 0 0 0 0 0 0 0 0 0 0 0 0 0 0 0 0.08 0"/>
<feBlend mode="normal" in2="BackgroundImageFix" result="effect1_dropShadow_428_137"/>
<feBlend mode="normal" in="SourceGraphic" in2="effect1_dropShadow_428_137" result="shape"/>
</filter>
<linearGradient id="paint0_linear_428_137" x1="43" y1="0" x2="43" y2="18" gradientUnits="userSpaceOnUse">
<stop stop-color="#48C78E"/>
<stop offset="1" stop-color="#21A86B"/>
</linearGradient>
</defs>
</svg>
