<svg width="162" height="63" viewBox="0 0 162 63" fill="none" xmlns="http://www.w3.org/2000/svg">
    <path
        d="M17.801 1.063l6.713 29.84h-5.327l-1.386-6.266H6.541l-1.474 6.266H0l6.887-29.84H17.8zm-.91 19.098L13.688 5.837h-2.86L7.45 20.161h9.442zM46.814 1.063v4.774H32.477v7.759H46.38v4.689H32.477v12.618H27.28V1.063h19.533zm10.221 25.066V5.837h-7.016V1.063h19.23v4.774h-7.016V26.13h7.016v4.774h-19.23V26.13h7.016zm14.722-5.883h5.068v1.705c0 .895.13 1.662.476 2.26.347.596.78 1.108 1.386 1.491.607.384 1.3.682 2.122.853.823.17 1.733.256 2.772.256 2.166 0 3.769-.341 4.721-1.023.953-.682 1.473-1.79 1.473-3.368 0-1.194-.347-2.089-.953-2.771-.606-.682-1.602-1.151-2.988-1.407l-6.584-1.407c-2.512-.511-4.33-1.449-5.457-2.856-1.126-1.406-1.646-3.069-1.646-5.03 0-1.194.217-2.302.693-3.325.433-1.023 1.126-1.918 2.036-2.686.91-.767 2.079-1.364 3.465-1.79 1.386-.426 2.988-.682 4.807-.682 1.82 0 3.465.213 4.894.64 1.386.426 2.556 1.022 3.509 1.79.91.767 1.602 1.62 2.079 2.643a7.557 7.557 0 01.736 3.24v2.344h-5.067v-1.15c0-.939-.174-1.749-.477-2.388-.346-.64-.78-1.151-1.343-1.535-.563-.34-1.212-.597-1.992-.767-.78-.17-1.56-.256-2.425-.256-.78 0-1.516.085-2.21.213a5.451 5.451 0 00-1.775.64c-.52.298-.953.682-1.256 1.193-.303.512-.433 1.109-.433 1.833 0 .427.043.853.13 1.237.086.426.26.767.563 1.065.26.341.65.597 1.17.853.519.256 1.212.469 2.078.64l6.237 1.236c2.425.511 4.288 1.406 5.587 2.77 1.256 1.365 1.906 3.155 1.906 5.457 0 1.407-.26 2.686-.736 3.837a8.289 8.289 0 01-2.21 2.941c-.995.81-2.208 1.45-3.68 1.876-1.473.469-3.12.682-5.025.682-2.252 0-4.114-.256-5.587-.81-1.473-.512-2.685-1.194-3.552-2.046-.91-.853-1.559-1.79-1.949-2.814a8.258 8.258 0 01-.563-2.984v-2.6zm31.991-19.183V13.34h12.041V1.063h5.197v29.84h-5.197V18.114h-12.041v12.79H98.55V1.062h5.197zm37.814 0l6.713 29.84h-5.327l-1.386-6.266H130.3l-1.473 6.266h-5.067l6.886-29.84h10.915zm-.91 19.098l-3.205-14.324h-2.858l-3.379 14.324h9.442z"
        fill="url(#prefix__prefix__paint0_linear_217_486)" />
    <path d="M108.153 59.711h5.556V57.67h-5.556v2.041z" fill="#fff" />
    <path
        d="M117.13 52.627v9.847h-2.137v-9.487l-.306-.36h-7.512l-.305.36v9.487h-2.076v-9.847h1.771l.305-.42v-1.682h8.123v1.681l.305.42h1.832zm-59.908 9.847v-2.042h-9.71V57.49h8.183v-2.04h-8.183v-2.882h9.71v-2.042H45.435v11.949h11.787zm34.381-1.681v1.681h10.321v-2.042H91.908l-.245-.36v-9.547h-2.136v9.907h1.77l.306.36zm-16.488 1.681h11.848v-2.042h-9.71v-2.521l.244-.42h7.939v-2.042h-7.94l-.243-.36v-2.522h9.71v-2.042H75.114v4.925h1.832l.306.42v1.261l-.306.42h-1.832v4.923zm-57.649 0h10.32v-2.042h-10.32v-2.521l.305-.42h8.488v-2.042h-8.488l-.305-.36v-2.522h10.32v-2.042H15.39v4.924h1.77l.306.42v1.261l-.306.36h-1.77v4.984h2.076z"
        fill="#fff" />
    <path fill-rule="evenodd" clip-rule="evenodd"
        d="M146.504 52.567h1.77v7.865h-1.77l-.306.42v1.622h-8.855v-1.621l-.305-.42h-1.772v-7.866h1.772l.305-.42v-1.622h8.855v1.621l.306.42zm-9.161 7.505l.305.42h8.245l.305-.36v-7.205l-.305-.36h-8.245l-.305.36v7.145zM32.06 62.474h-2.076v-9.907h1.771l.306-.36v-1.682h8.794v1.681l.305.36h1.77v3.904h-1.77l-.305.42v1.621h-2.199l2.931 2.282v1.681h-1.649l-2.87-2.222v-1.74h-5.007v3.962zm8.55-5.944l.245-.36v-3.183l-.306-.42h-8.183l-.305.42v3.543h8.55zm19.176 5.944V50.525h10.381v1.681l.306.36h1.77v7.866h-1.77l-.306.36v1.682H59.786zm2.076-2.042h8l.305-.36v-7.145l-.305-.36h-8v7.865z"
        fill="#fff" />
    <path
        d="M130.687 60.432h-1.771l-.306-.42v-2.041l-3.419-5.404h-.917l-.305-.36v-1.682h-4.152v11.949h2.076v-9.907h1.771l.305.36v1.981l3.543 5.524h.793l.305.36v1.682h4.153V50.525h-2.076v9.907z"
        fill="#fff" />
    <path fill-rule="evenodd" clip-rule="evenodd"
        d="M13.008 50.465v7.986H2.076v4.083H0V50.465h13.008zm-2.077 2.042H2.076v3.903h8.855v-3.903z" fill="#fff" />
    <g filter="url(#prefix__prefix__filter0_d_217_486)">
        <path
            d="M110.845 45.57h-4.546l10.257-20.063h5.466l3.586 20.062h-4.546l-2.439-15.478h-.157l-7.621 15.478zm1.038-7.887h10.737l-.568 3.311h-10.737l.568-3.31zm14.07 7.886l3.331-20.062h7.915c1.516 0 2.76.29 3.733.871.979.575 1.665 1.375 2.057 2.4.398 1.02.49 2.195.274 3.527-.222 1.339-.705 2.518-1.45 3.537-.738 1.012-1.698 1.802-2.88 2.37-1.182.568-2.547.852-4.094.852h-5.045l.558-3.399h4.359c.823 0 1.525-.14 2.106-.421a3.558 3.558 0 001.401-1.185 4.26 4.26 0 00.676-1.754c.111-.672.075-1.257-.108-1.753-.182-.497-.519-.882-1.009-1.156-.483-.281-1.133-.422-1.949-.422h-2.861l-2.772 16.595h-4.242zm23.365-20.062l-3.331 20.062h-4.242l3.331-20.062h4.242z"
            fill="#B6E9D2" />
    </g>
    <defs>
        <linearGradient id="prefix__prefix__paint0_linear_217_486" x1="74.137" y1=".466" x2="74.137" y2="31.5"
            gradientUnits="userSpaceOnUse">
            <stop stop-color="#48C78E" />
            <stop offset="1" stop-color="#21A86B" />
        </linearGradient>
        <filter id="prefix__prefix__filter0_d_217_486" x="94.299" y="17.507" width="67.018" height="44.063"
            filterUnits="userSpaceOnUse" color-interpolation-filters="sRGB">
            <feFlood flood-opacity="0" result="BackgroundImageFix" />
            <feColorMatrix in="SourceAlpha" values="0 0 0 0 0 0 0 0 0 0 0 0 0 0 0 0 0 0 127 0" result="hardAlpha" />
            <feOffset dy="4" />
            <feGaussianBlur stdDeviation="6" />
            <feComposite in2="hardAlpha" operator="out" />
            <feColorMatrix values="0 0 0 0 0 0 0 0 0 0 0 0 0 0 0 0 0 0 0.08 0" />
            <feBlend in2="BackgroundImageFix" result="effect1_dropShadow_217_486" />
            <feBlend in="SourceGraphic" in2="effect1_dropShadow_217_486" result="shape" />
        </filter>
    </defs>
</svg>